<mxfile host="app.diagrams.net" modified="2024-03-27T13:49:57.116Z" agent="Mozilla/5.0 (Windows NT 10.0; Win64; x64) AppleWebKit/537.36 (KHTML, like Gecko) Chrome/122.0.0.0 Safari/537.36 Edg/122.0.0.0" etag="uRk3BFOFvEqO677i3eVf" version="24.2.0" type="github">
  <diagram name="第 1 页" id="Ddvt5B1xVKl2A0ENtI3Z">
    <mxGraphModel dx="786" dy="489" grid="1" gridSize="10" guides="1" tooltips="1" connect="1" arrows="1" fold="1" page="1" pageScale="1" pageWidth="827" pageHeight="1169" math="0" shadow="0">
      <root>
        <mxCell id="0" />
        <mxCell id="1" parent="0" />
        <mxCell id="QOXc4bU1egT6P_Nxndpy-2" style="edgeStyle=orthogonalEdgeStyle;rounded=0;orthogonalLoop=1;jettySize=auto;html=1;" parent="1" source="QOXc4bU1egT6P_Nxndpy-1" edge="1">
          <mxGeometry relative="1" as="geometry">
            <mxPoint x="520" y="180" as="targetPoint" />
          </mxGeometry>
        </mxCell>
        <mxCell id="QOXc4bU1egT6P_Nxndpy-1" value="" style="rounded=0;whiteSpace=wrap;html=1;" parent="1" vertex="1">
          <mxGeometry x="340" y="160" width="160" height="60" as="geometry" />
        </mxCell>
        <UserObject label="&lt;pre&gt;                  ChatGPT Workflow             &#xa;                                               &#xa;       ┌─┐                                     &#xa;       ║&quot;│                                     &#xa;       └┬┘                                     &#xa;       ┌┼┐                                     &#xa;        │            ┌───────┐            ┌───┐&#xa;       ┌┴┐           │ChatGPT│            │API│&#xa;      User           └───┬───┘            └─┬─┘&#xa;       │  Sends message  │                  │  &#xa;       │ ───────────────&gt;│                  │  &#xa;       │                 │                  │  &#xa;       │                 │Processes message │  &#xa;       │                 │─────────────────&gt;│  &#xa;       │                 │                  │  &#xa;       │                 │Returns response  │  &#xa;       │                 │&lt;─────────────────│  &#xa;       │                 │                  │  &#xa;       │ Sends response  │                  │  &#xa;       │ &lt;───────────────│                  │  &#xa;      User           ┌───┴───┐            ┌─┴─┐&#xa;       ┌─┐           │ChatGPT│            │API│&#xa;       ║&quot;│           └───────┘            └───┘&#xa;       └┬┘                                     &#xa;       ┌┼┐                                     &#xa;        │                                      &#xa;       ┌┴┐                                     &#xa;&lt;/pre&gt;" plantUmlData="{&#xa;  &quot;data&quot;: &quot;@startuml\ntitle ChatGPT Workflow\n\nactor User as U\nparticipant ChatGPT\nparticipant API\n\nU -&gt; ChatGPT: Sends message\nChatGPT -&gt; API: Processes message\nAPI -&gt; ChatGPT: Returns response\nChatGPT -&gt; U: Sends response\n\n@enduml\n&quot;,&#xa;  &quot;format&quot;: &quot;txt&quot;&#xa;}" id="bA6yLIFbHf5pynAS_bQH-1">
          <mxCell style="text;html=1;align=left;verticalAlign=top;" vertex="1" parent="1">
            <mxGeometry x="400" y="260" width="490" height="490" as="geometry" />
          </mxCell>
        </UserObject>
      </root>
    </mxGraphModel>
  </diagram>
</mxfile>
